<svg width="57" height="63" viewBox="0 0 57 63" fill="none" xmlns="http://www.w3.org/2000/svg">
<path d="M54.4923 59.6743C56.3517 59.2818 57.4591 57.3109 56.5351 55.63C54.4983 51.9244 51.2895 48.6681 47.1847 46.1866C41.898 42.9907 35.4205 41.2583 28.7569 41.2583C22.0932 41.2583 15.6157 42.9906 10.3291 46.1866C6.22425 48.6681 3.01545 51.9244 0.978613 55.63C0.0546855 57.3109 1.16205 59.2817 3.02141 59.6743C19.996 63.2576 37.5177 63.2577 54.4923 59.6743Z" fill="white"/>
<path d="M45.5741 17.4096C45.5741 26.8177 38.0447 34.4444 28.7569 34.4444C19.469 34.4444 11.9397 26.8177 11.9397 17.4096C11.9397 8.00153 19.469 0.374786 28.7569 0.374786C38.0447 0.374786 45.5741 8.00153 45.5741 17.4096Z" fill="white"/>
</svg>
